<?xml version="1.0" standalone="no"?>
<!DOCTYPE svg PUBLIC "-//W3C//DTD SVG 20010904//EN"
 "http://www.w3.org/TR/2001/REC-SVG-20010904/DTD/svg10.dtd">
<svg version="1.0" xmlns="http://www.w3.org/2000/svg"
 width="300.000000pt" height="300.000000pt" viewBox="0 0 300.000000 300.000000"
 preserveAspectRatio="xMidYMid meet">
<metadata>
Created by potrace 1.14, written by Peter Selinger 2001-2017
</metadata>
<g transform="translate(0.000000,300.000000) scale(0.100000,-0.100000)"
fill="#000000" stroke="none">
<path d="M593 2080 c-32 -33 -63 -60 -70 -60 -7 0 -20 14 -28 31 -28 53 -87
55 -115 4 -19 -36 -6 -69 36 -88 41 -20 42 -20 -39 -100 l-48 -48 28 -32 c15
-18 44 -47 64 -65 l37 -32 20 35 c25 42 62 54 97 31 54 -36 52 -91 -5 -124
-16 -9 -29 -20 -27 -24 1 -4 26 -32 56 -63 l54 -56 25 23 c42 38 92 92 92 101
0 4 -10 11 -23 16 -27 10 -42 28 -51 59 -6 17 0 29 23 53 42 41 78 37 110 -13
l24 -38 46 43 c90 82 89 76 21 147 -33 33 -58 65 -55 69 2 5 18 14 35 21 51
21 53 88 2 114 -35 18 -66 6 -87 -33 -8 -17 -20 -31 -26 -31 -5 0 -37 27 -70
60 -33 33 -62 60 -65 60 -2 0 -30 -27 -61 -60z"/>
<path d="M2668 2118 c-39 -22 -74 -79 -64 -104 6 -16 116 -21 116 -4 0 14 37
31 54 24 31 -12 12 -64 -24 -64 -13 0 -16 -10 -16 -42 1 -36 4 -43 23 -46 25
-4 38 -32 28 -62 -8 -25 -36 -26 -57 -1 -12 15 -29 19 -72 19 -50 -1 -56 -3
-56 -22 0 -24 24 -62 55 -88 33 -27 98 -40 150 -28 85 19 125 63 125 138 0 40
-11 60 -47 84 l-23 15 25 13 c44 23 45 108 2 148 -51 47 -155 57 -219 20z"/>
<path d="M1094 2032 l-22 -3 0 -495 -1 -494 104 0 105 0 0 25 0 25 38 -24 c50
-33 126 -49 184 -37 3 0 1 16 -4 35 -21 69 48 156 124 156 13 0 40 -9 61 -20
20 -11 39 -20 41 -20 11 0 48 99 53 144 8 61 13 51 54 -111 24 -97 37 -133 49
-134 48 -3 222 -1 225 3 3 2 23 78 45 169 22 90 43 171 47 179 3 8 26 -68 52
-169 l46 -185 68 1 c37 1 72 2 77 2 6 1 10 11 10 24 0 49 70 117 121 117 7 0
10 3 6 6 -3 3 -1 18 4 33 6 14 24 76 39 136 16 61 38 143 49 183 l19 72 -40
22 c-22 13 -52 38 -66 58 -19 25 -35 35 -54 36 -16 0 -28 -1 -28 -2 0 -1 -13
-61 -30 -134 -16 -73 -32 -143 -34 -156 -3 -13 -7 -32 -9 -42 -3 -9 -8 -30
-12 -47 -6 -25 -17 7 -59 175 l-52 204 -97 1 c-60 1 -100 -2 -106 -9 -5 -6
-12 -27 -17 -46 -4 -19 -9 -39 -10 -45 -6 -26 -75 -291 -78 -300 -2 -9 -31
102 -40 155 -2 14 -9 43 -15 65 -11 42 -14 54 -26 123 -4 23 -13 46 -19 50 -6
4 -55 7 -108 7 -74 0 -98 -3 -98 -12 0 -8 9 -48 20 -89 12 -42 19 -79 16 -81
-2 -2 -7 4 -11 15 -8 27 -74 86 -125 112 -80 41 -200 39 -265 -6 -20 -13 -38
-24 -40 -24 -3 0 -6 79 -7 176 l-3 176 -80 2 c-44 0 -90 0 -101 -2z m406 -519
c63 -37 88 -133 52 -202 -60 -119 -235 -100 -269 29 -21 76 9 143 77 178 50
25 93 23 140 -5z"/>
<path d="M923 1733 c-67 -67 -83 -71 -103 -22 -18 42 -39 51 -72 31 -51 -30
-48 -70 8 -97 19 -9 34 -23 34 -32 0 -9 -27 -43 -61 -76 l-61 -59 62 -63 c64
-64 71 -88 33 -102 -29 -10 -53 -35 -53 -54 0 -21 48 -61 69 -57 8 2 26 19 39
38 13 19 28 37 34 39 5 2 39 -25 74 -60 92 -91 91 -94 91 262 1 351 2 348 -94
252z"/>
<path d="M263 1736 c-29 -30 -53 -58 -53 -62 0 -5 13 -15 29 -22 39 -17 53
-58 33 -94 -32 -55 -96 -55 -122 -1 -8 18 -19 33 -24 33 -5 0 -33 -25 -63 -55
-62 -62 -62 -64 13 -135 44 -41 48 -43 58 -25 21 36 55 65 73 62 35 -7 54 -20
67 -46 18 -34 5 -67 -34 -89 -16 -9 -30 -21 -30 -25 0 -9 104 -117 113 -117 3
0 31 27 64 61 63 66 82 69 103 19 19 -46 71 -48 102 -5 4 5 5 19 3 30 -2 11
-4 23 -4 27 -1 3 -15 11 -31 17 -53 18 -49 38 19 104 69 67 70 57 -11 139 -27
26 -48 54 -48 62 0 7 14 19 30 26 41 17 53 42 39 74 -22 48 -78 46 -99 -4 -20
-48 -36 -44 -102 20 -33 33 -63 60 -67 60 -3 -1 -30 -25 -58 -54z"/>
<path d="M593 1404 c-29 -30 -53 -58 -53 -62 0 -4 13 -13 30 -19 41 -15 56
-52 38 -89 -29 -62 -108 -64 -131 -4 -6 17 -15 30 -19 30 -8 0 -118 -107 -118
-114 0 -2 27 -31 60 -65 53 -53 59 -63 50 -81 -6 -11 -17 -20 -24 -20 -18 0
-46 -33 -46 -53 0 -23 36 -57 60 -57 12 0 29 15 45 40 14 22 29 40 35 40 5 0
29 -19 53 -42 90 -89 76 -87 145 -18 33 33 65 60 71 60 6 0 22 -18 36 -40 29
-46 54 -51 85 -18 34 36 24 64 -33 93 -34 17 -31 33 20 83 82 82 81 73 17 137
-54 53 -59 56 -71 39 -34 -49 -55 -64 -81 -58 -39 9 -74 53 -67 84 6 26 41 59
63 60 6 0 12 4 12 9 0 10 -111 121 -119 120 -4 0 -30 -25 -58 -55z"/>
<path d="M1595 1160 c-36 -14 -50 -41 -46 -93 1 -24 56 -55 87 -49 13 2 33 15
43 28 16 20 18 33 12 79 -1 11 -53 45 -68 44 -4 0 -17 -4 -28 -9z"/>
<path d="M2543 1157 c-29 -13 -48 -69 -34 -96 20 -36 49 -50 84 -40 42 12 58
30 59 68 2 57 -56 93 -109 68z"/>
</g>
</svg>
